<?xml version="1.0" encoding="iso-8859-1"?>
<!-- Generator: Adobe Illustrator 16.0.0, SVG Export Plug-In . SVG Version: 6.00 Build 0)  -->
<!DOCTYPE svg PUBLIC "-//W3C//DTD SVG 1.1//EN" "http://www.w3.org/Graphics/SVG/1.1/DTD/svg11.dtd">
<svg version="1.1" id="Capa_1" xmlns="http://www.w3.org/2000/svg" xmlns:xlink="http://www.w3.org/1999/xlink" x="0px" y="0px"
	 width="314.065px" height="314.064px" viewBox="0 0 314.065 314.064" style="enable-background:new 0 0 314.065 314.064;"
	 xml:space="preserve">
<g>
	<g id="_x34_98._Forward">
		<g>
			<path d="M235.533,21.057C160.438-22.291,64.414,3.433,21.063,78.521c-43.356,75.096-17.633,171.119,57.464,214.483
				c75.087,43.353,171.119,17.625,214.476-57.47C336.364,160.443,310.62,64.408,235.533,21.057z M265.801,219.83
				c-34.681,60.079-111.503,80.657-171.574,45.973C34.158,231.118,13.565,154.304,48.25,94.229
				C82.932,34.151,159.756,13.567,219.828,48.25C279.899,82.934,300.485,159.763,265.801,219.83z M148.624,101.524
				c-6.131-6.133-16.08-6.133-22.201,0c-6.129,6.121-6.129,16.068,0,22.197l33.304,33.312l-33.304,33.302
				c-6.129,6.132-6.129,16.069,0,22.201c6.122,6.136,16.07,6.136,22.201,0l44.41-44.402c0.766-0.766,1.431-1.595,2.008-2.452
				c1.724-2.617,2.581-5.627,2.581-8.648c0-4.025-1.522-8.039-4.589-11.108L148.624,101.524z"/>
		</g>
	</g>
</g>
<g>
</g>
<g>
</g>
<g>
</g>
<g>
</g>
<g>
</g>
<g>
</g>
<g>
</g>
<g>
</g>
<g>
</g>
<g>
</g>
<g>
</g>
<g>
</g>
<g>
</g>
<g>
</g>
<g>
</g>
</svg>
