<?xml version="1.0" encoding="iso-8859-1"?>
<!-- Generator: Adobe Illustrator 16.0.0, SVG Export Plug-In . SVG Version: 6.00 Build 0)  -->
<!DOCTYPE svg PUBLIC "-//W3C//DTD SVG 1.1//EN" "http://www.w3.org/Graphics/SVG/1.1/DTD/svg11.dtd">
<svg version="1.1" id="Capa_1" xmlns="http://www.w3.org/2000/svg" xmlns:xlink="http://www.w3.org/1999/xlink" x="0px" y="0px"
	 width="140.172px" height="140.172px" viewBox="0 0 140.172 140.172" style="enable-background:new 0 0 140.172 140.172;"
	 xml:space="preserve">
<g>
	<g id="_x36_4._Trash">
		<g>
			<path d="M70.086,112.138c3.867,0,7.009-3.142,7.009-7.009V49.06c0-3.869-3.142-7.008-7.009-7.008
				c-3.869,0-7.008,3.14-7.008,7.008v56.069C63.078,108.996,66.217,112.138,70.086,112.138z M126.155,14.017h-21.026V7.009
				C105.129,3.14,101.987,0,98.12,0H42.052c-3.869,0-7.008,3.14-7.008,7.009v7.008H14.018c-3.872,0-7.009,3.14-7.009,7.009
				s3.137,7.008,7.009,7.008v98.12c0,7.741,6.276,14.018,14.017,14.018h84.103c7.741,0,14.018-6.276,14.018-14.018v-98.12
				c3.867,0,7.008-3.14,7.008-7.008S130.022,14.017,126.155,14.017z M112.138,126.154H28.035v-98.12h84.103V126.154z
				 M49.061,112.138c3.869,0,7.008-3.142,7.008-7.009V49.06c0-3.869-3.14-7.008-7.008-7.008s-7.009,3.14-7.009,7.008v56.069
				C42.052,108.996,45.192,112.138,49.061,112.138z M91.112,112.138c3.867,0,7.008-3.142,7.008-7.009V49.06
				c0-3.869-3.141-7.008-7.008-7.008s-7.009,3.14-7.009,7.008v56.069C84.104,108.996,87.245,112.138,91.112,112.138z"/>
		</g>
	</g>
</g>
<g>
</g>
<g>
</g>
<g>
</g>
<g>
</g>
<g>
</g>
<g>
</g>
<g>
</g>
<g>
</g>
<g>
</g>
<g>
</g>
<g>
</g>
<g>
</g>
<g>
</g>
<g>
</g>
<g>
</g>
</svg>
